<?xml version="1.0" standalone="no"?>
<!DOCTYPE svg PUBLIC "-//W3C//DTD SVG 20010904//EN"
 "http://www.w3.org/TR/2001/REC-SVG-20010904/DTD/svg10.dtd">
<svg version="1.0" xmlns="http://www.w3.org/2000/svg"
 width="500.000000pt" height="500.000000pt" viewBox="0 0 500.000000 500.000000"
 preserveAspectRatio="xMidYMid meet">
<metadata>
Created by potrace 1.14, written by Peter Selinger 2001-2017
</metadata>
<g transform="translate(0.000000,500.000000) scale(0.100000,-0.100000)"
fill="#000000" stroke="none">
<path d="M3839 4479 c-13 -8 -5 -13 16 -9 6 1 4 -4 -2 -11 -7 -7 -13 -17 -13
-22 0 -4 6 -5 13 -1 9 6 9 5 0 -8 -7 -8 -10 -17 -7 -20 3 -4 -12 -5 -33 -3
-21 1 -41 1 -45 -2 -14 -7 4 -33 23 -33 10 0 19 -5 19 -11 0 -5 6 -7 13 -3 9
6 9 4 -1 -8 -11 -14 -10 -17 7 -23 12 -3 21 -11 21 -16 0 -6 3 -8 8 -5 4 2 16
-3 27 -11 16 -12 16 -14 3 -10 -10 3 -20 2 -23 -3 -4 -6 -1 -10 5 -10 6 0 8
-4 5 -10 -3 -5 -2 -10 4 -10 5 0 17 -7 26 -17 9 -9 38 -18 65 -21 45 -4 49 -2
66 27 10 17 22 31 27 31 5 0 4 7 -3 15 -7 9 -8 15 -2 15 13 0 -11 83 -26 88
-7 2 -12 -6 -12 -17 0 -13 -7 -21 -17 -22 -12 0 -13 -2 -5 -6 10 -4 10 -8 1
-19 -9 -11 -8 -14 2 -14 10 0 10 -3 2 -11 -6 -6 -9 -18 -6 -26 5 -13 3 -14
-18 -2 -24 13 -30 15 -49 18 -7 1 -6 7 2 15 7 8 16 12 20 10 4 -3 5 5 3 16 -2
11 0 20 5 20 15 0 7 54 -10 68 -10 9 -11 11 -1 6 10 -5 12 -3 7 5 -6 9 -13 8
-26 -6 -12 -12 -14 -22 -8 -30 7 -9 7 -13 -1 -13 -6 0 -10 -3 -10 -7 4 -27 -2
-33 -21 -23 -21 11 -28 40 -10 40 12 0 9 38 -4 59 -6 10 -5 12 2 7 18 -11 14
-2 -7 16 -12 10 -23 13 -32 7z"/>
<path d="M1024 4455 c-3 -14 -4 -31 -1 -39 3 -7 0 -19 -6 -26 -8 -9 -9 -11 -1
-7 7 4 17 0 24 -8 11 -13 10 -14 -4 -9 -9 3 -16 2 -16 -3 0 -5 -7 -10 -15 -10
-8 0 -12 4 -9 9 3 4 1 8 -5 8 -6 0 -8 6 -5 14 6 16 -12 56 -25 56 -4 0 -13
-11 -19 -25 -6 -14 -8 -25 -4 -25 4 0 7 -16 8 -36 0 -23 7 -40 17 -46 24 -13
21 -27 -3 -21 -12 3 -20 0 -20 -6 0 -7 -4 -9 -10 -6 -5 3 -10 1 -10 -6 0 -16
-13 -3 -16 16 -1 8 3 15 9 15 7 0 7 4 -2 9 -8 5 -11 16 -8 25 3 8 0 22 -8 30
-8 7 -11 16 -8 20 4 3 0 6 -9 6 -15 0 -41 -66 -32 -82 3 -4 -1 -8 -8 -8 -9 0
-9 -3 -2 -8 6 -4 14 -18 17 -32 7 -26 46 -50 82 -50 27 0 85 28 85 41 0 6 4 8
9 4 6 -3 8 4 6 16 -4 21 17 52 32 47 4 -1 14 10 21 25 7 15 20 27 28 27 7 0
14 9 14 20 0 16 -6 20 -30 18 -16 -1 -30 -7 -30 -12 0 -5 -3 -6 -7 -3 -10 11
-9 67 2 67 11 0 -16 20 -27 20 -4 0 -10 -11 -14 -25z"/>
<path d="M770 4295 c-24 -29 -26 -101 -6 -162 8 -22 61 -50 85 -45 8 2 10 -1
5 -9 -4 -7 8 -2 26 11 18 13 30 18 25 10 -5 -8 10 -1 33 16 22 16 43 37 45 47
3 9 1 15 -4 11 -5 -3 -9 -1 -9 3 0 5 -11 10 -26 11 -14 1 -23 -2 -20 -6 3 -5
-1 -9 -9 -9 -8 0 -15 5 -15 11 0 6 -4 5 -9 -3 -5 -8 -16 -11 -26 -8 -9 4 -14
3 -11 -2 3 -5 -1 -11 -9 -15 -16 -6 -29 9 -20 24 3 6 3 10 -2 10 -4 0 -9 19
-10 42 -1 26 -8 45 -18 50 -8 5 -13 13 -10 19 10 15 -1 10 -15 -6z"/>
<path d="M4100 4277 c-9 -15 -9 -18 2 -11 10 6 11 5 1 -8 -7 -8 -10 -18 -6
-21 3 -4 2 -7 -4 -7 -5 0 -9 -16 -8 -35 1 -20 -2 -38 -8 -42 -6 -3 -7 -1 -3 5
4 6 -1 11 -11 11 -10 0 -31 2 -48 5 -67 13 -93 12 -90 -4 2 -8 4 -21 4 -27 1
-7 4 -12 9 -11 4 1 20 -6 35 -16 35 -24 81 -32 122 -22 11 2 24 5 28 5 5 1 5
6 2 11 -3 6 -2 10 4 10 6 0 13 16 17 35 3 19 10 35 16 35 5 0 6 6 1 13 -8 13
-12 29 -16 69 -2 31 -28 34 -47 5z"/>
<path d="M869 4203 c-13 -16 -12 -17 4 -4 9 7 17 15 17 17 0 8 -8 3 -21 -13z"/>
<path d="M654 4165 c3 -8 2 -15 -3 -15 -12 0 -5 -134 8 -138 6 -2 11 -10 11
-18 0 -8 5 -14 10 -14 6 0 10 -8 10 -17 0 -15 2 -16 10 -3 7 11 10 11 10 2 0
-7 6 -12 13 -11 6 1 21 0 32 -1 16 -1 13 -4 -12 -16 -17 -7 -34 -18 -38 -24
-3 -5 -11 -10 -17 -10 -6 0 -6 6 2 15 11 13 10 14 -4 9 -9 -3 -16 -15 -16 -27
0 -11 -3 -17 -7 -14 -3 4 -12 2 -18 -3 -9 -8 -16 2 -26 37 -7 27 -19 54 -26
61 -7 8 -10 19 -6 25 3 7 3 9 -1 5 -5 -4 -17 2 -28 12 -11 10 -25 17 -32 14
-11 -4 -16 -94 -6 -94 3 0 6 -8 7 -17 3 -33 46 -117 56 -107 3 3 10 -3 16 -14
8 -15 8 -22 -2 -25 -9 -4 -9 -6 1 -6 7 -1 15 5 18 12 3 8 15 13 27 12 12 -1
30 2 41 7 14 8 17 7 10 -3 -4 -7 6 -3 23 9 17 12 36 22 42 22 6 0 11 3 11 8 0
4 13 21 28 37 16 17 27 36 24 43 -2 6 2 12 8 12 10 0 10 3 0 14 -6 8 -19 13
-28 10 -9 -3 -1 4 18 15 19 10 45 28 56 40 12 11 24 17 27 14 3 -2 4 3 3 13
-2 10 -8 20 -14 22 -7 2 -9 9 -5 15 4 7 0 6 -10 -1 -14 -12 -39 -19 -84 -24
-7 -1 -13 -6 -13 -11 0 -5 -7 -4 -15 3 -13 11 -14 10 -10 -1 4 -10 -1 -15 -12
-15 -13 0 -18 7 -17 26 1 14 -1 30 -5 35 -3 6 -7 19 -8 30 -2 10 -8 22 -15 26
-6 4 -7 12 -3 19 5 8 4 11 -3 6 -6 -3 -13 -2 -17 4 -10 16 -28 12 -21 -5z"/>
<path d="M4220 4164 c0 -8 -5 -14 -11 -14 -6 0 -9 -7 -5 -15 3 -8 1 -15 -5
-15 -6 0 -9 -7 -5 -15 3 -8 1 -15 -4 -15 -6 0 -10 -13 -10 -30 0 -35 -22 -40
-69 -15 -16 8 -31 11 -35 8 -3 -4 -6 -2 -6 4 0 6 -9 9 -20 6 -16 -4 -19 -2
-14 13 5 12 0 10 -15 -8 l-22 -27 30 -30 c16 -16 32 -27 35 -24 3 4 6 2 6 -4
0 -6 10 -14 23 -18 l22 -7 -23 -6 c-27 -8 -27 -17 0 -55 27 -37 73 -86 64 -67
-4 8 2 3 14 -12 12 -16 27 -28 33 -28 6 0 2 7 -9 16 -18 15 -17 15 6 2 14 -8
40 -14 58 -13 18 1 36 -3 39 -8 4 -6 1 -7 -8 -2 -8 5 -5 -1 5 -13 21 -24 32
-29 19 -9 -14 23 -11 37 13 56 13 10 24 24 24 30 0 6 4 11 9 11 5 0 8 8 7 18
-2 9 1 20 7 23 5 4 10 25 11 48 0 22 5 41 10 41 4 0 3 7 -4 15 -7 8 -9 15 -4
15 4 0 3 5 -3 11 -8 8 -17 7 -34 -5 -13 -9 -20 -16 -15 -16 5 0 -1 -9 -14 -20
-13 -11 -20 -20 -15 -20 4 0 2 -7 -5 -15 -6 -8 -9 -19 -5 -25 3 -5 1 -10 -4
-10 -6 0 -10 -3 -10 -7 1 -5 1 -19 0 -33 -2 -23 -3 -24 -15 -7 -7 9 -19 17
-27 17 -12 0 -12 2 -1 9 11 7 10 9 -3 14 -9 4 -13 3 -10 -2 11 -19 -12 -19
-25 0 -8 10 -22 19 -32 19 -9 0 -20 5 -23 10 -6 10 7 14 33 11 6 -1 12 3 12 9
0 5 5 10 11 10 5 0 7 -5 3 -12 -4 -7 -3 -8 5 -4 6 4 9 12 6 17 -4 5 1 9 9 9 9
0 15 3 15 8 -3 19 2 33 10 28 5 -3 9 9 10 27 0 17 1 39 1 47 3 46 -8 83 -23
86 -9 1 -17 -4 -17 -12z"/>
<path d="M430 3879 c0 -5 -3 -8 -8 -5 -4 2 -6 -17 -3 -42 2 -26 4 -59 5 -74 0
-16 5 -28 9 -28 5 0 5 -4 2 -10 -3 -5 -1 -10 5 -10 6 0 8 -4 5 -10 -3 -5 -1
-10 5 -10 6 0 9 -4 6 -8 -8 -14 57 -75 68 -65 3 4 4 -8 2 -24 -2 -23 0 -30 10
-26 7 3 12 10 11 16 -1 6 8 12 19 13 12 0 34 5 50 9 16 5 32 9 37 10 4 2 12 3
18 4 5 0 7 6 3 13 -5 8 -2 9 9 5 10 -3 17 -3 17 2 0 11 36 52 41 47 2 -2 16
16 31 40 l28 45 -22 8 c-14 5 -34 3 -53 -4 -16 -7 -36 -10 -42 -8 -7 3 -13 -2
-13 -11 0 -9 -3 -15 -7 -14 -5 0 -19 -4 -33 -10 -14 -6 -21 -11 -15 -11 5 -1
-1 -9 -15 -18 -18 -13 -25 -14 -28 -4 -4 11 -6 11 -13 0 -6 -10 -9 -8 -9 8 0
12 -4 24 -10 28 -5 3 -7 12 -3 20 3 8 -1 15 -8 15 -7 0 -9 3 -6 6 9 9 -9 41
-46 81 -31 34 -47 41 -47 22z"/>
<path d="M4429 3858 c-36 -39 -61 -83 -52 -92 4 -3 2 -6 -3 -6 -9 0 -11 -7
-15 -67 -1 -16 -4 -22 -6 -15 -3 6 -10 9 -15 6 -6 -4 -8 -2 -5 4 9 13 -2 42
-15 42 -6 0 -6 -6 1 -14 9 -11 9 -16 0 -22 -8 -4 -9 -3 -5 4 4 7 1 12 -8 12
-9 0 -16 5 -16 10 0 6 -7 10 -15 10 -8 0 -15 5 -15 11 0 5 -4 7 -10 4 -5 -3
-10 -1 -10 5 0 6 -4 8 -10 5 -5 -3 -10 -2 -10 3 0 5 -6 9 -12 10 -24 2 -47 8
-53 14 -10 9 -45 -3 -45 -16 0 -7 9 -22 20 -34 11 -12 20 -24 20 -27 0 -10 66
-70 81 -73 8 -2 16 -8 17 -13 2 -5 13 -9 23 -9 11 0 18 -4 15 -8 -3 -5 15 -7
40 -6 31 2 44 0 42 -9 -3 -19 12 -57 23 -57 6 0 7 5 2 13 -4 6 -8 27 -9 45 -1
28 5 36 27 34 3 0 14 16 24 36 11 20 23 39 27 42 4 3 8 17 10 30 2 14 7 31 12
39 7 10 6 12 -4 6 -9 -6 -11 -4 -4 6 12 19 14 89 2 89 -5 0 -6 5 -3 10 14 23
-19 7 -46 -22z"/>
<path d="M293 3667 c-10 -17 -3 -71 11 -79 8 -6 8 -8 -2 -8 -14 0 -12 -21 3
-32 5 -4 10 -13 10 -20 1 -24 40 -93 65 -116 14 -13 41 -32 60 -42 19 -11 29
-19 23 -20 -7 0 -13 -5 -13 -11 0 -6 8 -8 18 -5 15 5 15 4 2 -7 -17 -14 -24
-37 -11 -37 10 0 24 39 21 60 -1 8 1 12 6 8 4 -4 14 -2 22 5 13 10 14 9 8 -1
-9 -14 -9 -14 64 23 30 16 81 63 115 107 16 21 38 71 42 97 4 22 2 23 -33 18
-21 -4 -40 -10 -43 -15 -3 -5 -14 -8 -24 -6 -10 1 -14 -2 -10 -9 4 -7 0 -8
-11 -4 -10 4 -15 3 -11 -3 3 -6 3 -10 -2 -10 -15 0 -82 -68 -75 -76 4 -4 1 -4
-6 0 -7 5 -11 14 -9 20 3 7 0 13 -7 13 -7 0 -11 -12 -10 -28 1 -16 -4 -30 -12
-33 -13 -5 -16 -2 -18 27 -1 6 -5 15 -9 18 -4 3 -9 16 -10 27 -1 12 -7 22 -15
22 -7 0 -11 4 -8 8 7 12 -80 109 -104 115 -11 3 -23 0 -27 -6z"/>
<path d="M4580 3672 c-23 -7 -100 -93 -94 -103 3 -5 -2 -12 -10 -15 -9 -3 -16
-15 -16 -26 0 -10 -4 -17 -8 -14 -4 2 -9 -5 -9 -17 -2 -32 -8 -56 -16 -62 -4
-3 -5 -2 -3 1 2 3 -2 20 -9 39 -8 18 -11 36 -7 39 3 4 -1 4 -10 1 -10 -4 -15
-13 -11 -23 3 -9 -8 -1 -25 18 -17 19 -31 31 -32 25 0 -5 -7 1 -16 13 -8 12
-22 22 -30 22 -8 0 -14 4 -14 9 0 5 -11 12 -25 15 -14 4 -24 10 -21 14 3 5 -8
6 -24 4 -27 -4 -52 -42 -27 -42 6 0 8 -3 4 -6 -3 -4 1 -13 9 -21 8 -8 12 -18
9 -23 -3 -4 2 -11 11 -14 8 -3 12 -10 9 -16 -3 -6 1 -13 9 -16 9 -3 14 -9 11
-14 -2 -4 7 -13 20 -20 13 -7 22 -17 19 -22 -3 -4 2 -8 10 -8 9 0 16 -4 16
-10 0 -5 7 -10 15 -10 8 0 15 -5 15 -11 0 -5 5 -7 10 -4 6 3 10 2 10 -4 0 -5
9 -8 20 -6 11 2 22 -1 25 -6 4 -5 10 -7 15 -4 10 6 22 -28 25 -65 1 -16 8 -26
21 -28 16 -3 16 -1 4 7 -8 6 -12 11 -9 11 4 0 3 15 -1 34 -7 34 4 71 20 61 5
-3 24 10 44 28 20 19 39 31 42 28 4 -3 4 -1 0 6 -3 6 -2 14 4 18 6 4 8 11 5
16 -4 5 -1 9 5 9 6 0 8 5 5 10 -3 6 0 13 9 16 8 3 13 14 11 25 -2 10 -1 21 3
23 4 2 9 19 10 36 1 18 7 40 12 49 14 27 -6 45 -40 33z"/>
<path d="M510 3539 c0 -5 5 -7 10 -4 6 3 10 8 10 11 0 2 -4 4 -10 4 -5 0 -10
-5 -10 -11z"/>
<path d="M217 3389 c-3 -10 -2 -19 2 -19 4 0 7 -10 8 -22 0 -30 6 -52 16 -59
4 -3 10 -16 12 -30 3 -13 9 -25 15 -27 6 -2 8 -8 4 -13 -3 -5 0 -9 7 -9 7 0
10 -2 7 -5 -8 -8 53 -75 69 -75 7 0 13 -5 13 -11 0 -5 5 -7 10 -4 6 3 10 1 10
-5 0 -6 4 -9 8 -6 4 2 14 1 22 -4 12 -8 13 -13 2 -30 -7 -11 -9 -19 -5 -18 5
2 8 -1 8 -7 0 -5 -4 -9 -9 -7 -5 2 -4 -4 3 -12 7 -8 10 -20 6 -26 -3 -5 1 -10
9 -10 11 0 14 11 13 45 -1 25 1 45 6 45 4 0 7 8 7 18 0 14 2 15 10 2 8 -12 10
-12 10 -1 0 8 3 12 6 8 4 -3 19 0 34 8 64 33 132 122 161 210 18 54 15 73 -7
54 -11 -9 -14 -9 -14 1 0 9 -3 10 -13 1 -8 -6 -17 -8 -20 -4 -4 3 -7 0 -7 -7
0 -7 -3 -10 -7 -7 -3 4 -39 -27 -80 -68 -40 -41 -78 -75 -84 -75 -5 0 -8 -4
-4 -9 3 -5 1 -12 -4 -15 -7 -4 -20 23 -20 42 -1 1 -12 13 -26 27 -15 13 -26
27 -25 30 1 4 -8 19 -21 33 -13 15 -23 30 -21 35 1 4 -7 7 -18 7 -11 0 -20 4
-20 9 0 8 -19 16 -57 26 -6 2 -13 -6 -16 -16z"/>
<path d="M4640 3392 c-19 -9 -36 -20 -38 -24 -2 -4 -11 -8 -19 -8 -9 0 -14 -2
-11 -5 3 -3 -10 -22 -28 -42 -18 -20 -31 -39 -29 -44 3 -4 -2 -9 -10 -13 -8
-3 -15 -12 -15 -21 0 -8 -5 -15 -11 -15 -5 0 -7 -6 -3 -12 4 -8 3 -10 -2 -5
-5 5 -10 13 -10 18 -1 5 -2 13 -3 18 0 6 -10 9 -20 8 -11 0 -17 -5 -15 -9 3
-5 9 -6 13 -4 4 3 8 -1 8 -9 0 -8 -3 -15 -7 -15 -11 0 -39 57 -32 66 4 5 3 6
-2 2 -5 -4 -26 11 -46 32 -21 22 -44 40 -50 40 -6 0 -8 6 -4 13 4 6 3 9 -1 4
-5 -4 -19 0 -32 8 -13 9 -23 11 -23 6 0 -6 -6 -8 -14 -5 -36 14 -23 -40 33
-141 38 -69 107 -127 151 -129 24 -1 30 -5 30 -23 0 -13 5 -23 11 -23 8 0 8
-4 -1 -15 -10 -11 -9 -18 4 -30 18 -19 18 -20 20 23 1 17 -2 32 -6 32 -5 0 -4
9 2 21 7 12 18 18 26 15 8 -3 17 1 20 9 4 8 10 13 14 10 8 -5 57 39 78 71 19
29 46 88 44 97 -1 4 2 7 7 7 5 0 8 8 7 18 -2 9 1 27 7 38 5 13 6 28 1 37 -8
14 -13 14 -44 -1z"/>
<path d="M3345 3307 c-14 -16 -15 -250 -1 -259 8 -6 8 -8 0 -8 -6 0 -11 -6
-11 -14 0 -21 209 -17 212 4 2 8 -4 21 -11 28 -12 11 -14 10 -14 -5 0 -15 -2
-16 -10 -3 -5 8 -10 11 -10 5 0 -5 -5 -3 -10 5 -8 12 -10 12 -10 1 0 -10 -3
-11 -13 -2 -8 6 -17 8 -21 4 -11 -11 -36 -12 -36 -2 0 6 -4 7 -10 4 -6 -4 -10
39 -10 120 0 106 -2 126 -14 122 -8 -3 -16 -2 -18 3 -2 4 -8 3 -13 -3z"/>
<path d="M888 3218 c-2 -51 -1 -118 2 -148 l5 -56 101 -3 c100 -2 101 -2 100
21 -1 18 -8 24 -38 29 -20 3 -35 3 -33 -1 2 -4 -9 -7 -25 -6 -17 1 -30 4 -30
8 0 4 -7 5 -17 1 -13 -5 -15 -2 -11 15 4 12 2 22 -4 22 -5 0 -6 5 -2 12 4 7 8
24 8 38 0 14 -4 31 -8 38 -4 7 -4 12 1 12 7 0 9 54 3 70 -1 3 -2 13 -1 23 2
12 -5 17 -23 17 -24 0 -25 -1 -28 -92z"/>
<path d="M1218 3276 c-7 -17 -13 -35 -13 -39 0 -4 -7 -12 -15 -17 -13 -9 -13
-10 0 -10 13 0 13 -1 0 -10 -8 -5 -15 -13 -15 -17 -1 -4 -11 -30 -24 -58 -13
-27 -23 -56 -22 -62 1 -7 -3 -13 -9 -13 -5 0 -10 -9 -10 -20 0 -15 7 -20 24
-20 22 0 36 17 36 43 -1 4 6 15 15 24 12 11 19 13 27 5 8 -8 15 -8 24 -1 8 7
14 7 19 -1 5 -8 11 -8 21 1 10 8 14 8 14 1 0 -6 7 -9 15 -6 20 8 45 -13 45
-37 0 -23 46 -37 63 -19 10 10 8 12 -7 6 -16 -5 -17 -4 -7 8 10 12 7 23 -14
56 -15 23 -21 39 -13 34 7 -4 5 2 -5 13 -9 11 -14 23 -10 26 3 4 1 7 -6 7 -7
0 -9 5 -6 10 3 6 1 10 -5 10 -6 0 -9 4 -5 9 3 5 -2 16 -10 25 -9 8 -16 18 -15
21 1 25 -1 35 -9 31 -5 -3 -8 2 -7 12 1 13 -7 17 -31 18 -27 1 -34 -4 -45 -30z
m56 -58 c9 -17 16 -37 16 -45 0 -8 4 -12 9 -9 4 3 8 -5 7 -17 -1 -12 -7 -21
-15 -19 -7 1 -20 -3 -29 -10 -12 -10 -14 -10 -8 0 5 8 -2 12 -26 12 -22 0 -29
3 -20 9 8 4 12 10 11 12 -3 4 34 99 38 99 1 0 9 -14 17 -32z"/>
<path d="M1596 3291 c-14 -8 -26 -22 -26 -29 0 -7 -3 -11 -8 -8 -4 2 -8 -11
-8 -29 0 -19 3 -32 8 -29 4 3 8 0 8 -6 0 -6 7 -18 15 -26 8 -9 15 -12 15 -8 0
3 7 0 17 -7 9 -8 17 -13 17 -11 1 2 20 0 43 -4 24 -3 40 -10 38 -14 -3 -5 0
-10 6 -12 9 -3 9 -9 1 -24 -13 -25 -100 -34 -113 -12 -7 10 -9 10 -9 -2 0 -13
-1 -13 -10 0 -8 13 -11 13 -24 0 -19 -19 -7 -40 22 -43 12 -1 22 -4 22 -8 0
-4 25 -6 56 -6 44 0 61 4 84 24 49 41 43 95 -12 128 -22 12 -28 14 -23 4 8
-12 6 -12 -8 -1 -9 8 -22 10 -28 6 -8 -4 -9 -3 -5 4 4 8 -1 12 -13 13 -41 3
-44 4 -47 24 -7 45 20 54 111 40 l50 -8 -20 24 c-15 18 -16 20 -2 10 11 -9 17
-10 17 -2 0 30 -129 39 -174 12z"/>
<path d="M1837 3304 c8 -4 9 -13 3 -30 -7 -16 -6 -24 1 -24 8 0 8 -4 0 -13 -8
-10 -7 -17 1 -25 7 -7 8 -12 2 -12 -13 0 -12 -83 1 -92 6 -5 6 -8 -1 -8 -12 0
-11 -41 2 -61 4 -8 3 -9 -4 -5 -8 4 -10 2 -6 -7 4 -12 28 -15 113 -15 l107 0
2 25 c2 22 -1 25 -23 21 -14 -3 -25 -1 -25 4 0 5 -6 6 -12 2 -17 -11 -48 -12
-48 -3 0 5 -11 4 -25 -1 -22 -8 -25 -6 -33 23 -5 19 -5 35 1 38 5 3 7 10 5 15
-1 4 30 8 70 8 43 0 72 4 72 11 0 19 -18 37 -31 33 -8 -3 -22 -1 -31 3 -9 5
-19 5 -22 1 -4 -7 -18 -8 -57 -3 -11 2 -17 51 -7 51 5 0 6 5 3 10 -3 6 -3 10
2 11 4 0 18 2 31 3 12 2 22 -1 22 -6 0 -5 8 -4 18 1 11 6 24 6 35 0 11 -7 17
-6 17 1 0 5 3 9 8 9 21 -4 30 3 25 20 -4 16 -16 18 -116 19 -62 0 -107 -2
-100 -4z"/>
<path d="M2121 3294 c6 -8 7 -14 2 -14 -10 0 -10 -41 1 -58 4 -7 4 -12 -1 -12
-4 0 -8 -20 -8 -45 0 -25 3 -45 7 -45 4 0 3 -11 -2 -25 -6 -16 -6 -26 1 -31 7
-4 7 -10 0 -18 -13 -16 5 -36 32 -36 13 0 17 5 13 16 -3 9 -2 12 5 9 7 -5 9 7
6 32 l-4 40 41 -3 c29 -2 46 -10 57 -26 10 -13 16 -26 16 -29 -4 -12 33 -39
52 -39 31 0 32 14 5 43 -14 15 -22 27 -18 27 3 0 1 7 -7 16 -10 13 -10 17 2
25 8 5 18 9 23 9 5 0 7 3 3 6 -3 4 1 13 9 21 8 9 13 21 10 29 -3 7 0 15 7 18
9 3 9 5 0 5 -6 1 -9 10 -6 21 3 11 0 20 -6 20 -6 0 -11 7 -11 15 0 16 -39 36
-52 28 -5 -2 -8 1 -8 6 0 7 -33 11 -90 10 -77 -1 -89 -3 -79 -15z m149 -36
c27 -6 40 -19 40 -39 0 -13 5 -18 13 -14 6 4 3 -1 -7 -9 -11 -9 -16 -16 -12
-16 5 0 3 -7 -4 -15 -7 -8 -16 -12 -21 -9 -5 3 -9 1 -9 -4 0 -13 -33 -10 -42
3 -5 6 -8 5 -8 -2 0 -9 -7 -10 -22 -4 -18 6 -23 16 -23 47 0 69 14 79 95 62z"/>
<path d="M2431 3199 c-1 -61 -2 -114 -3 -118 0 -3 0 -20 1 -37 l1 -31 108 1
c105 1 107 2 110 25 3 15 0 21 -8 16 -6 -4 -17 -2 -25 5 -8 7 -15 7 -19 1 -4
-6 -18 -6 -36 -1 -19 5 -30 5 -32 -2 -3 -8 -10 -7 -25 0 -16 9 -21 21 -20 49
l1 38 60 -1 c76 -2 84 2 82 30 -1 20 -5 22 -26 17 -14 -4 -45 -4 -70 -1 -43 5
-45 6 -46 40 l-1 35 78 -2 c44 -1 79 1 80 5 0 4 2 14 4 23 2 15 -11 17 -105
18 l-108 2 -1 -112z"/>
<path d="M2714 3299 c-3 -5 1 -9 8 -9 9 0 10 -3 2 -8 -7 -4 -11 -41 -10 -102
1 -53 -3 -101 -9 -109 -7 -11 -7 -13 2 -8 9 6 11 -1 9 -21 -4 -25 -1 -28 22
-28 27 0 27 0 27 78 1 43 -3 78 -8 78 -4 0 -2 6 5 14 17 18 30 12 53 -27 10
-17 29 -41 42 -53 13 -12 23 -25 23 -30 1 -18 56 -63 76 -62 19 2 20 9 19 150
l0 148 -26 0 c-23 0 -25 -3 -24 -40 1 -23 -2 -43 -7 -46 -4 -3 -5 -13 0 -22 4
-9 6 -26 6 -37 -1 -11 -2 -26 -3 -33 -1 -14 -71 52 -71 67 0 5 -13 19 -30 32
-16 13 -30 30 -30 37 0 7 -7 15 -15 18 -8 4 -13 10 -10 14 2 4 -7 8 -20 8 -14
0 -28 -4 -31 -9z"/>
<path d="M3054 3294 c-10 -8 -13 -13 -6 -9 15 8 16 -7 0 -23 -7 -7 -8 -12 -2
-12 5 0 9 -50 9 -117 l0 -118 107 -3 c75 -2 108 1 114 9 5 8 3 9 -7 4 -12 -8
-12 -6 0 8 12 15 11 17 -3 17 -9 0 -16 4 -16 8 0 5 -19 6 -42 3 -88 -12 -119
8 -99 63 8 19 15 21 75 19 63 -2 66 0 66 21 0 19 -5 23 -27 22 -16 -1 -35 2
-44 6 -9 4 -19 4 -23 1 -8 -9 -46 -11 -47 -4 0 3 -2 21 -3 39 -3 35 -5 35 101
33 33 0 55 5 63 14 9 11 10 15 1 15 -7 0 -9 5 -6 10 4 6 -29 10 -92 10 -75 0
-104 -4 -119 -16z"/>
<path d="M3590 3300 c-11 -7 -11 -10 -2 -10 7 0 10 -5 7 -10 -4 -6 -12 -7 -18
-3 -9 5 -9 3 0 -8 13 -16 13 -86 0 -106 -4 -6 -3 -14 3 -18 5 -3 9 -29 9 -58
-1 -29 -1 -57 0 -63 1 -15 261 -19 261 -4 0 6 5 8 10 5 6 -4 10 -3 9 2 -4 25
3 44 22 54 17 9 20 8 13 -3 -6 -11 -5 -11 9 1 13 10 17 10 17 1 0 -10 3 -10
15 0 11 9 15 9 15 1 0 -8 5 -9 19 -1 14 7 22 7 26 0 4 -6 9 -8 13 -6 4 2 13
-2 20 -10 7 -8 10 -14 6 -14 -3 0 -1 -6 5 -13 6 -8 8 -17 5 -20 -3 -3 8 -5 25
-5 26 1 30 5 29 24 -1 13 -8 26 -16 29 -7 3 -10 9 -7 15 3 5 1 10 -4 10 -6 0
-11 7 -11 15 0 8 -13 44 -30 80 -16 36 -30 70 -30 75 0 6 -4 10 -10 10 -5 0
-9 3 -9 8 4 22 -4 29 -36 30 -20 1 -33 -3 -30 -8 3 -5 1 -11 -5 -15 -6 -4 -8
-11 -5 -16 4 -5 2 -9 -3 -9 -9 0 -25 -37 -23 -52 1 -5 -4 -8 -10 -8 -5 0 -7
-4 -4 -10 3 -5 2 -10 -4 -10 -6 0 -8 -7 -5 -15 4 -8 1 -15 -5 -15 -6 0 -11 -9
-11 -20 0 -11 -4 -20 -8 -20 -5 0 -9 -6 -10 -12 -3 -33 -10 -52 -20 -56 -7 -2
-9 -9 -5 -15 3 -7 2 -8 -3 -4 -5 5 -9 14 -9 20 0 7 -12 12 -26 13 -14 1 -31 4
-37 8 -6 3 -13 2 -17 -3 -3 -6 -12 -8 -20 -4 -9 3 -15 -1 -15 -8 0 -8 -6 -5
-15 7 -8 10 -15 15 -16 9 0 -5 -4 1 -8 15 -5 14 -4 33 1 43 6 11 5 17 -3 17
-8 0 -9 4 0 13 6 8 8 16 6 19 -10 10 -10 118 -1 118 5 0 6 3 2 7 -11 11 -40
13 -56 3z m393 -110 c6 -14 10 -28 9 -32 -1 -5 2 -8 8 -8 5 0 7 -7 4 -15 -4
-8 -10 -12 -15 -9 -5 3 -9 -1 -9 -8 0 -8 -3 -9 -8 -3 -4 6 -15 11 -24 12 -10
0 -23 1 -28 2 -13 1 -9 51 5 68 37 46 39 47 43 32 3 -8 9 -25 15 -39z"/>
<path d="M456 3272 c2 -2 -1 -13 -7 -23 -6 -11 -6 -19 0 -19 13 0 23 32 13 40
-5 4 -7 5 -6 2z"/>
<path d="M626 3124 c-8 -8 -19 -14 -24 -14 -6 0 -12 -3 -14 -8 -1 -4 -16 -17
-32 -30 -16 -12 -26 -22 -22 -22 4 0 -2 -10 -14 -22 -11 -12 -29 -41 -41 -65
-20 -42 -35 -59 -22 -26 5 11 3 14 -6 8 -10 -5 -11 -2 -6 14 5 15 2 21 -10 21
-12 0 -14 -6 -9 -27 6 -27 5 -27 -19 7 -44 59 -111 130 -124 130 -7 0 -13 3
-13 8 0 10 -67 30 -77 23 -12 -9 -16 -44 -5 -37 6 3 8 -2 5 -13 -3 -10 0 -22
6 -25 6 -4 11 -15 11 -25 0 -10 7 -24 15 -31 9 -7 13 -15 11 -17 -3 -3 6 -17
19 -31 13 -14 22 -29 19 -34 -3 -4 2 -8 11 -8 9 0 14 -4 11 -8 -3 -5 4 -15 16
-23 11 -8 26 -19 33 -26 7 -7 15 -9 19 -6 3 4 6 1 6 -6 0 -7 5 -9 10 -6 6 4
18 1 27 -7 14 -11 16 -11 9 2 -4 9 -2 8 7 -2 8 -10 16 -17 18 -15 2 1 -2 -3
-9 -10 -9 -8 -10 -13 -2 -18 6 -4 9 -13 6 -21 -3 -8 0 -14 6 -14 6 0 5 -6 -3
-17 -9 -11 -10 -14 -2 -9 9 5 11 2 7 -8 -6 -15 -34 -11 -34 5 0 12 -49 59 -61
59 -6 0 -7 5 -4 10 3 6 -1 10 -10 10 -8 0 -18 7 -21 15 -4 8 -12 15 -19 15 -7
0 -23 8 -36 18 -22 15 -37 18 -77 13 -7 0 -10 -5 -7 -11 3 -5 2 -10 -4 -10
-10 0 17 -60 32 -71 5 -3 8 -8 7 -10 -1 -2 2 -13 6 -24 8 -19 16 -31 42 -60 6
-7 12 -18 12 -24 0 -6 3 -11 8 -11 4 0 27 -18 52 -40 40 -35 103 -59 133 -52
5 2 6 -1 3 -6 -3 -5 1 -19 8 -33 7 -13 11 -30 8 -37 -2 -6 2 -12 10 -12 10 0
9 -3 -2 -10 -11 -7 -12 -10 -2 -10 9 0 11 -7 7 -20 -4 -11 -2 -20 4 -20 6 0
11 -7 11 -16 0 -11 -9 -8 -37 13 -21 15 -46 36 -55 46 -9 10 -23 20 -31 21 -8
1 -26 10 -42 20 -15 10 -24 13 -20 6 4 -7 -4 -4 -18 5 -14 9 -28 16 -31 16 -4
-1 -7 -1 -8 0 -19 6 -61 2 -66 -6 -11 -17 -11 -35 0 -35 6 0 7 -7 4 -16 -3 -8
-2 -12 3 -9 5 3 12 -4 16 -15 3 -11 11 -20 16 -20 5 0 9 -6 9 -14 0 -7 18 -30
39 -49 22 -19 37 -38 33 -41 -3 -3 2 -6 10 -6 9 0 19 -7 22 -16 3 -8 10 -12
16 -9 5 3 10 3 10 -2 0 -12 60 -44 71 -37 5 3 9 1 9 -5 0 -6 7 -8 15 -5 8 4
15 2 15 -3 0 -5 9 -9 20 -9 11 0 20 3 20 6 0 4 7 7 15 7 8 0 15 -6 15 -14 0
-7 6 -13 13 -13 8 0 7 -4 -3 -10 -11 -7 -11 -10 -2 -10 7 0 11 -4 8 -9 -4 -5
-1 -11 5 -13 7 -2 13 -13 13 -24 1 -11 6 -26 11 -34 11 -18 15 -40 8 -40 -9 0
-77 43 -84 53 -3 5 -9 8 -13 7 -4 -1 -16 0 -27 3 -10 3 -23 6 -27 7 -4 1 -13
6 -19 12 -9 7 -13 7 -13 -2 0 -9 -4 -9 -12 -3 -7 6 -21 9 -30 8 -10 -2 -18 1
-18 6 0 5 -11 4 -25 -1 -14 -5 -31 -9 -38 -7 -6 1 -13 -9 -15 -22 -2 -15 0
-21 7 -17 6 4 9 1 7 -6 -3 -7 16 -30 40 -50 25 -21 42 -38 37 -38 -10 0 49
-34 117 -67 57 -28 159 -40 171 -21 4 6 12 4 20 -6 8 -9 20 -23 27 -31 6 -7
12 -21 12 -29 0 -9 5 -16 12 -16 6 0 9 -3 5 -6 -5 -6 0 -15 31 -49 7 -8 10
-15 6 -15 -4 0 0 -6 11 -13 16 -13 15 -14 -14 -15 -17 0 -31 3 -31 6 0 4 -12
9 -27 10 -15 1 -29 5 -32 10 -3 4 -16 8 -29 9 -12 1 -34 3 -50 4 -15 2 -32 7
-39 11 -6 5 -14 5 -17 -1 -3 -5 -19 -8 -36 -7 -16 1 -30 -2 -30 -7 0 -5 -9 -7
-20 -4 -10 3 -25 0 -33 -7 -18 -14 -30 -46 -17 -46 5 0 20 -11 34 -25 14 -14
29 -25 34 -25 5 0 21 -9 36 -21 14 -11 30 -18 35 -15 5 3 12 -1 15 -10 4 -9 9
-14 13 -11 3 4 12 2 18 -3 7 -6 24 -11 39 -12 14 -1 26 -6 26 -11 0 -5 10 -7
23 -6 12 2 28 0 35 -4 7 -5 12 -3 12 5 0 8 3 9 8 3 8 -11 42 -16 42 -6 0 3 11
7 25 8 45 4 55 6 55 14 0 3 9 9 20 12 10 3 19 2 18 -2 -2 -20 4 -31 17 -31 8
0 15 -6 15 -14 0 -7 11 -21 25 -30 14 -9 23 -21 20 -26 -4 -6 1 -10 10 -10 9
0 13 -4 10 -10 -3 -5 1 -10 9 -10 8 0 18 -9 21 -20 3 -11 13 -20 21 -20 8 0
14 -7 14 -15 0 -11 -5 -12 -24 -5 -13 5 -27 6 -30 3 -3 -4 -6 -2 -6 3 0 11 -3
11 -122 14 -48 1 -91 -1 -96 -4 -5 -3 -24 -8 -42 -11 -18 -3 -42 -11 -54 -17
-11 -7 -28 -13 -36 -14 -14 -3 -40 -31 -40 -45 0 -4 16 -14 35 -23 19 -9 35
-22 35 -29 0 -7 4 -6 10 3 5 8 10 10 10 4 0 -10 69 -35 135 -50 49 -10 179
-11 193 -1 7 6 15 7 19 4 3 -4 12 1 19 11 9 11 13 13 14 4 0 -11 3 -11 15 0
33 30 45 38 54 38 5 0 11 5 13 10 2 6 18 0 35 -13 18 -13 29 -28 25 -32 -4 -5
-2 -5 4 -2 6 3 20 -3 32 -13 12 -11 26 -20 32 -20 5 0 10 -4 10 -10 0 -5 5
-10 10 -10 6 0 16 -5 23 -10 7 -6 21 -17 32 -25 19 -14 19 -15 1 -8 -15 5 -17
3 -11 -8 8 -12 6 -12 -8 0 -14 11 -20 11 -32 1 -11 -9 -15 -9 -15 -1 0 7 -5 9
-12 5 -7 -5 -33 -9 -58 -10 -25 -1 -46 -3 -47 -4 -2 -1 -6 -3 -10 -4 -62 -15
-136 -43 -168 -64 -39 -26 -85 -71 -85 -83 0 -9 57 -34 103 -45 4 -1 8 -2 10
-3 5 -4 104 -15 145 -15 23 -1 42 -5 42 -9 0 -5 6 -5 13 0 11 7 32 10 105 15
12 1 22 6 22 10 0 4 3 7 8 6 4 -1 22 3 40 9 18 7 35 12 37 12 6 1 25 15 56 44
10 9 21 17 24 17 3 0 5 3 4 7 -2 18 32 21 67 6 22 -9 42 -18 47 -19 4 -1 10
-3 15 -4 4 -1 10 -2 15 -1 4 0 7 -3 7 -9 0 -5 9 -10 20 -10 11 0 20 -5 20 -10
0 -6 3 -9 8 -9 18 3 33 -2 28 -10 -3 -4 -17 -7 -31 -6 -14 2 -25 -1 -25 -6 0
-6 -4 -8 -9 -4 -5 3 -12 1 -15 -3 -3 -5 -17 -8 -31 -7 -14 2 -25 -1 -25 -7 0
-5 -6 -8 -12 -5 -7 2 -25 -5 -40 -15 -16 -11 -28 -16 -28 -12 0 3 -7 1 -15 -6
-8 -7 -15 -9 -15 -4 0 5 -5 1 -11 -9 -5 -9 -17 -17 -24 -17 -8 0 -15 -4 -15
-10 0 -5 -6 -10 -12 -10 -32 -1 -117 -104 -111 -132 3 -10 8 -18 11 -19 4 0
18 -3 32 -5 55 -10 255 -5 255 6 0 1 11 3 25 5 32 6 64 13 68 15 1 2 5 3 10 5
40 11 124 54 134 69 4 6 8 8 8 4 0 -10 47 35 48 45 0 5 10 17 21 26 11 10 18
21 14 24 -3 4 2 9 11 13 9 3 13 11 10 16 -4 6 0 7 12 1 11 -5 26 -9 34 -8 8 1
24 -2 35 -6 12 -4 28 -1 39 6 14 11 15 17 6 34 -10 21 -17 23 -72 24 -16 1
-28 4 -29 7 -6 38 -5 58 3 73 5 9 5 17 1 17 -4 0 -9 18 -10 39 -2 56 -105 267
-116 239 -4 -9 -6 -8 -6 3 -1 16 -111 138 -111 123 0 -4 -11 5 -25 20 -13 14
-29 26 -35 26 -5 0 -10 5 -10 11 0 5 -5 7 -10 4 -6 -3 -13 0 -16 8 -3 8 -13
14 -22 12 -9 -2 -21 -4 -26 -4 -5 -1 -7 -4 -4 -7 4 -3 3 -18 -2 -34 -5 -18 -4
-32 3 -39 8 -8 8 -11 -1 -11 -8 0 -9 -7 -1 -27 5 -14 8 -32 5 -40 -3 -7 -1
-13 4 -13 6 0 10 -11 10 -25 0 -14 4 -25 8 -25 5 0 9 -7 9 -15 0 -18 44 -107
58 -117 5 -4 6 -8 2 -8 -4 0 -3 -6 2 -13 46 -55 61 -76 61 -85 0 -6 9 -13 20
-17 11 -3 19 -10 17 -15 -1 -5 6 -15 16 -22 17 -13 17 -14 -5 -12 -43 3 -88
16 -88 26 0 5 -4 6 -10 3 -5 -3 -23 1 -39 10 -17 8 -40 17 -53 19 -13 2 -22
10 -20 17 2 8 0 11 -4 7 -4 -4 -13 -3 -20 3 -10 8 -11 16 -3 30 5 11 7 24 4
29 -3 6 -2 10 3 10 5 0 12 9 15 20 3 11 2 20 -2 20 -3 0 -6 23 -5 50 0 28 -2
50 -6 50 -3 0 -5 12 -5 28 1 15 -5 35 -13 45 -9 9 -11 17 -6 17 5 0 3 4 -4 9
-7 4 -14 15 -16 24 -4 29 -61 129 -78 138 -10 5 -18 14 -18 20 0 5 -13 23 -30
39 -16 16 -30 35 -30 41 0 7 -3 10 -6 6 -4 -3 -13 1 -21 9 -12 12 -18 12 -31
2 -13 -11 -14 -11 -7 2 5 10 5 12 -3 5 -6 -5 -12 -23 -14 -40 -1 -16 -7 -33
-13 -37 -6 -5 -5 -8 2 -8 9 0 10 -7 3 -24 -5 -13 -6 -27 -3 -30 4 -3 8 -23 10
-44 3 -40 20 -115 33 -147 4 -11 15 -36 24 -57 9 -20 16 -41 16 -47 0 -6 5
-11 11 -11 5 0 8 -4 5 -9 -3 -5 1 -12 10 -15 8 -3 13 -10 10 -15 -3 -5 1 -12
10 -15 8 -3 13 -10 9 -16 -4 -6 -13 -5 -25 2 -10 7 -17 16 -14 20 3 4 -2 5
-10 2 -9 -3 -16 -1 -16 6 0 6 -4 9 -9 6 -5 -3 -12 1 -15 10 -4 9 -9 14 -12 11
-4 -3 -18 5 -32 18 -13 13 -31 21 -39 18 -8 -3 -13 0 -11 8 2 8 -3 13 -9 11
-7 -1 -13 5 -13 14 0 10 -5 14 -16 10 -8 -3 -13 -2 -9 3 3 5 0 11 -7 13 -9 3
-6 14 8 39 14 24 19 52 19 96 0 36 4 63 10 63 7 0 7 3 0 8 -5 4 -11 14 -12 22
-1 8 -5 26 -8 40 -4 14 -8 33 -8 43 -1 9 -5 17 -9 17 -4 0 -8 9 -8 19 0 11 -5
23 -10 26 -6 4 -8 11 -5 16 4 5 1 9 -5 9 -6 0 -8 5 -5 10 3 6 1 10 -5 10 -6 0
-8 5 -5 10 3 6 2 10 -3 10 -5 0 -12 8 -16 18 -6 19 -25 50 -43 69 -14 16 -43
17 -43 2 0 -5 -4 -8 -8 -5 -4 2 -8 -3 -9 -12 0 -9 -4 -28 -8 -42 -10 -32 -14
-200 -5 -200 4 0 6 -20 6 -44 -1 -24 1 -44 4 -44 18 1 21 -4 9 -19 -10 -11
-10 -14 -1 -9 6 4 12 2 12 -3 0 -22 -20 -10 -47 29 -15 22 -34 40 -40 40 -7 0
-13 7 -13 16 0 8 -4 12 -10 9 -5 -3 -10 1 -10 9 0 9 -4 16 -9 16 -5 0 -7 9 -4
20 3 11 9 17 14 14 5 -3 9 1 9 9 0 8 7 20 15 27 9 7 13 15 11 18 -3 2 1 19 8
37 11 25 11 36 3 45 -9 10 -9 11 -1 7 13 -8 28 20 15 27 -4 3 -6 30 -4 61 2
36 -1 55 -8 55 -8 0 -8 5 1 15 7 8 8 15 3 15 -6 0 -13 18 -17 40 -3 22 -11 40
-17 40 -5 0 -8 4 -4 9 3 6 -3 25 -14 44 -11 19 -17 39 -13 43 4 5 0 3 -9 -4
-9 -6 -18 -9 -22 -6 -4 5 -26 -25 -33 -46 -1 -3 -5 -15 -9 -27 -4 -13 -11 -23
-16 -23 -5 0 -6 -7 -3 -15 4 -9 1 -15 -7 -15 -10 0 -10 -3 -2 -11 8 -8 9 -19
2 -37 -5 -13 -7 -27 -4 -30 2 -3 -1 -12 -8 -20 -6 -9 -7 -13 -2 -10 6 4 10
-17 9 -55 0 -34 4 -68 10 -76 9 -12 8 -12 -11 0 -13 8 -23 19 -23 26 0 7 -5
13 -11 13 -5 0 -7 5 -4 10 3 6 1 10 -5 10 -6 0 -9 4 -6 9 3 5 -1 11 -9 15 -8
3 -15 12 -15 21 0 8 -5 15 -11 15 -6 0 -9 7 -5 15 3 8 1 15 -4 15 -6 0 -10 5
-10 10 0 6 8 10 17 10 9 0 13 3 10 7 -4 3 4 14 19 23 14 10 25 19 23 21 -5 9
13 49 22 49 5 0 9 11 9 25 0 14 6 25 13 25 9 0 8 3 -2 9 -7 5 -9 11 -4 14 14
9 16 182 3 208 -10 17 -9 20 2 13 11 -6 11 -5 -1 9 -7 9 -10 17 -5 17 11 1
-26 30 -37 30 -4 0 -11 -9 -14 -20 -4 -11 -9 -18 -13 -16 -12 7 -32 -20 -32
-45 0 -5 -5 -7 -12 -3 -7 4 -8 3 -4 -5 4 -6 2 -18 -4 -26 -6 -8 -9 -19 -6 -24
4 -5 1 -13 -6 -18 -7 -4 -14 -17 -14 -28 -1 -11 -4 -33 -8 -50 -4 -16 -8 -49
-9 -72 -1 -33 -4 -40 -14 -31 -7 6 -13 19 -13 30 0 12 -4 17 -12 12 -8 -5 -9
-2 -5 9 3 9 2 19 -4 23 -6 3 -8 12 -5 20 3 8 2 14 -3 14 -5 0 -11 10 -14 23
-8 31 -8 37 1 39 10 3 42 29 60 50 9 9 20 14 25 11 6 -3 7 -1 4 4 -4 6 0 16 8
23 8 7 12 16 9 21 -3 5 0 9 7 9 7 0 9 3 6 7 -4 3 0 17 8 29 8 13 17 34 19 46
3 13 5 23 7 23 3 0 10 49 9 73 0 12 4 22 8 22 4 0 8 11 8 25 0 14 -3 25 -6 25
-4 0 -5 13 -2 29 2 16 0 31 -5 34 -12 8 -63 -4 -63 -15 0 -5 -12 -21 -27 -35
-16 -14 -27 -29 -25 -34 1 -5 -5 -12 -13 -15 -8 -4 -15 -12 -15 -19 0 -6 -11
-33 -25 -59 -13 -25 -24 -50 -24 -54 1 -20 -25 -91 -31 -87 -5 3 -7 13 -6 23
2 9 0 19 -4 22 -5 3 -9 19 -11 35 -2 17 -7 35 -12 42 -5 7 -6 17 -2 23 3 5 1
10 -5 10 -7 0 -9 8 -5 20 4 13 2 20 -7 20 -10 0 -9 3 2 9 8 6 18 7 22 5 4 -3
8 0 8 5 0 6 3 10 8 10 19 -3 31 3 60 31 32 31 80 99 84 122 2 7 9 19 16 26 6
7 13 23 14 35 1 21 4 37 8 47 1 4 7 35 11 57 5 33 -32 51 -52 27 -7 -8 -14
-12 -17 -10 -9 10 -104 -98 -129 -148 -14 -28 -28 -53 -32 -56 -3 -3 -6 -11
-7 -17 -2 -27 -4 -33 -12 -33 -4 0 -8 10 -9 22 -1 11 -8 25 -15 29 -8 6 -9 9
-2 9 8 0 11 22 8 68 -1 37 -1 62 2 55 4 -9 14 -7 38 7 60 33 76 45 76 55 0 5
10 20 23 31 23 22 38 48 58 99 11 26 15 42 23 80 1 6 5 16 9 23 5 7 3 12 -5
13 -7 0 -21 2 -31 4 -9 2 -24 -3 -31 -11z"/>
<path d="M4218 3118 c-2 -13 1 -36 8 -53 20 -54 25 -70 22 -70 -5 0 67 -100
87 -121 11 -11 35 -27 52 -34 17 -8 30 -17 27 -21 -2 -4 6 -5 18 -1 16 4 20 2
15 -10 -3 -9 0 -21 6 -28 7 -8 7 -10 1 -7 -12 7 -14 -5 -15 -71 0 -28 -4 -40
-11 -36 -7 5 -9 1 -5 -9 3 -10 2 -17 -3 -17 -6 0 -10 8 -10 18 0 23 -22 72
-33 72 -5 0 -5 5 -2 10 3 6 1 10 -5 10 -6 0 -9 4 -6 8 3 5 -6 20 -20 35 -14
15 -22 27 -19 27 3 0 -11 15 -32 32 -21 18 -40 36 -43 39 -6 6 -39 21 -57 25
-24 4 -18 -88 8 -152 7 -16 13 -36 13 -44 0 -8 6 -19 13 -23 7 -4 13 -12 13
-18 0 -5 14 -28 30 -51 17 -22 30 -37 30 -33 0 4 10 -3 23 -17 13 -14 31 -25
40 -26 39 -4 44 -6 44 -18 0 -7 -5 -10 -11 -7 -6 4 -5 -1 3 -10 8 -11 9 -17 3
-17 -6 0 -9 -7 -6 -15 4 -8 2 -15 -4 -15 -6 0 -9 -11 -7 -25 1 -14 -2 -28 -7
-31 -4 -3 -6 -9 -3 -14 3 -5 1 -11 -5 -15 -6 -4 -8 -11 -5 -16 4 -5 2 -9 -4
-9 -6 0 -8 -6 -5 -13 3 -8 -1 -14 -8 -14 -7 0 -14 14 -15 31 -4 45 -7 57 -26
95 -9 18 -14 37 -11 42 3 5 0 9 -7 9 -7 0 -10 3 -6 6 13 13 -109 143 -131 139
-9 -2 -20 -4 -23 -4 -6 -1 -3 -115 5 -161 2 -14 8 -36 13 -50 6 -14 8 -31 6
-37 -3 -7 0 -13 6 -13 6 0 11 -7 11 -15 0 -8 5 -15 11 -15 5 0 7 -5 4 -10 -3
-6 1 -17 9 -26 9 -9 14 -20 10 -25 -3 -5 -2 -8 3 -7 4 2 23 -12 42 -30 19 -17
41 -32 49 -32 10 0 12 -6 8 -22 -4 -13 -8 -27 -9 -33 -2 -5 -8 -20 -15 -32 -7
-12 -12 -27 -12 -33 0 -6 -7 -18 -15 -27 -8 -8 -13 -19 -10 -24 4 -5 2 -9 -4
-9 -5 0 -13 5 -16 10 -3 6 -1 10 5 10 6 0 8 5 4 12 -5 7 -10 29 -11 48 -5 56
-6 60 -13 60 -4 0 -6 11 -5 25 2 14 -1 25 -6 25 -6 0 -8 4 -4 9 3 5 1 12 -5
16 -6 4 -8 11 -5 16 4 5 1 9 -4 9 -6 0 -11 5 -11 11 0 5 -14 28 -31 49 -21 26
-36 37 -48 32 -23 -8 -30 -22 -25 -47 2 -13 -3 -28 -11 -35 -8 -7 -12 -17 -8
-23 4 -6 7 -40 9 -76 1 -36 3 -66 4 -66 1 0 4 -11 14 -60 1 -5 5 -16 9 -22 5
-7 5 -18 1 -25 -4 -6 -3 -8 4 -4 11 6 28 -30 23 -49 -1 -5 0 -7 4 -3 8 8 55
-36 55 -52 0 -6 -4 -8 -10 -5 -5 3 -7 0 -4 -8 3 -8 -2 -22 -11 -31 -9 -9 -14
-16 -10 -16 4 0 -1 -7 -9 -16 -9 -8 -16 -22 -16 -30 0 -8 -4 -14 -10 -14 -5 0
-10 -7 -10 -15 0 -8 -7 -15 -16 -15 -8 0 -12 5 -9 11 9 14 12 179 4 179 -4 0
-6 6 -6 13 2 27 -16 97 -25 97 -5 0 -6 5 -3 10 3 6 2 10 -3 10 -6 0 -13 11
-16 25 -4 14 -14 25 -23 25 -19 0 -42 -28 -43 -52 0 -10 -4 -18 -10 -18 -5 0
-10 -9 -10 -19 0 -11 -5 -23 -11 -27 -8 -4 -7 -9 2 -15 8 -5 9 -9 3 -9 -6 0
-11 -6 -11 -12 -3 -36 -11 -79 -16 -85 -4 -3 -2 -12 4 -20 8 -9 8 -13 1 -13
-6 0 -10 -9 -9 -20 1 -11 4 -20 7 -20 3 0 6 -17 6 -38 3 -57 7 -82 16 -82 4 0
8 -5 8 -11 0 -6 9 -24 21 -40 17 -24 18 -31 7 -42 -7 -8 -31 -35 -53 -61 -43
-52 -84 -82 -67 -49 6 10 13 34 17 53 10 46 15 252 7 265 -4 5 -7 13 -8 18 -1
4 -3 9 -4 12 -1 3 -3 11 -4 17 -2 26 -38 19 -67 -13 -15 -17 -26 -35 -24 -39
3 -5 -2 -11 -11 -14 -9 -4 -14 -9 -10 -13 3 -3 -2 -15 -11 -26 -10 -10 -17
-21 -15 -23 1 -2 -5 -21 -14 -42 -8 -20 -16 -45 -17 -54 -1 -10 -4 -18 -7 -18
-4 0 -6 -18 -6 -40 1 -22 -2 -40 -5 -40 -9 0 -2 -89 9 -127 6 -17 8 -34 4 -37
-3 -3 0 -6 6 -6 24 0 11 -28 -25 -56 -21 -16 -39 -27 -40 -24 -2 3 -10 -5 -18
-17 -9 -13 -23 -23 -31 -23 -8 0 -14 -5 -14 -11 0 -5 -4 -8 -9 -5 -5 3 -12 -1
-15 -10 -3 -8 -10 -12 -16 -9 -5 3 -10 1 -10 -6 0 -8 -4 -8 -15 1 -13 11 -14
10 -9 -5 5 -13 4 -16 -4 -11 -7 4 -12 2 -12 -5 0 -7 -3 -9 -7 -6 -4 4 2 20 13
35 30 41 95 183 100 217 1 11 5 34 9 50 10 46 11 146 2 152 -4 3 -3 11 4 19 9
11 8 15 -5 20 -9 3 -13 10 -10 15 3 5 0 10 -5 10 -6 1 -16 2 -23 3 -14 1 -76
-55 -72 -65 2 -3 -7 -15 -19 -26 -30 -27 -57 -61 -57 -72 0 -5 -7 -14 -15 -21
-8 -7 -12 -16 -10 -21 3 -4 -2 -12 -11 -17 -9 -5 -16 -13 -16 -18 0 -5 -5 -22
-13 -39 -7 -16 -17 -43 -21 -60 -10 -42 -11 -45 -14 -47 -6 -7 -4 -120 2 -124
4 -3 5 -11 2 -19 -3 -7 0 -23 6 -34 9 -17 8 -25 -5 -37 -9 -9 -19 -14 -22 -10
-3 3 -18 -3 -32 -13 -14 -10 -32 -16 -38 -14 -7 3 -13 0 -13 -7 0 -6 -4 -9 -9
-5 -5 3 -12 1 -16 -4 -3 -5 -14 -8 -25 -6 -13 3 -18 0 -14 -7 5 -7 0 -9 -14
-6 -12 4 -22 3 -22 -2 0 -4 -9 -10 -20 -13 -14 -4 -18 -1 -12 7 11 20 75 97
94 114 9 9 15 19 12 24 -3 4 0 8 6 8 6 0 9 4 6 9 -3 5 1 14 9 21 8 7 15 18 15
26 0 7 7 19 15 28 9 8 15 19 14 23 -1 4 5 24 14 43 8 19 13 38 11 42 -3 5 -2
8 3 8 17 0 22 165 5 182 -13 13 -77 -22 -129 -71 -18 -16 -33 -27 -33 -24 0 3
-12 -9 -28 -28 -15 -19 -39 -47 -55 -63 -15 -16 -27 -32 -27 -37 0 -4 -6 -14
-14 -21 -17 -18 -51 -81 -48 -91 1 -4 -3 -7 -9 -7 -5 0 -7 -5 -4 -10 3 -5 2
-10 -4 -10 -5 0 -8 -8 -6 -17 1 -10 0 -22 -4 -28 -10 -18 -13 -39 -13 -102 0
-35 -3 -63 -6 -64 -4 0 -16 -2 -27 -5 -11 -2 -30 -5 -43 -6 -12 -1 -25 -11
-28 -21 -6 -20 13 -50 28 -41 5 3 31 8 58 9 46 4 49 2 65 -31 9 -19 20 -34 25
-34 6 0 10 -7 10 -17 0 -9 3 -14 6 -10 3 3 17 -4 30 -16 40 -38 54 -48 54 -40
0 4 4 2 8 -5 5 -7 18 -14 30 -17 11 -2 30 -9 41 -15 12 -6 21 -8 21 -4 0 3 6
1 13 -5 8 -6 17 -8 20 -4 4 3 12 1 19 -5 44 -36 358 -33 344 4 -3 7 0 15 7 18
9 3 9 5 0 5 -7 1 -13 6 -13 11 0 14 -75 90 -89 90 -6 0 -11 5 -11 10 0 6 -7
10 -15 10 -9 0 -18 7 -21 15 -4 8 -10 12 -15 9 -5 -3 -9 0 -9 6 0 6 -4 8 -10
5 -5 -3 -10 -1 -10 4 0 6 -9 11 -20 11 -11 0 -20 5 -20 11 0 5 -5 7 -10 4 -6
-4 -16 -2 -23 3 -15 12 -102 34 -139 36 -34 1 -14 27 26 33 11 2 25 8 33 14 7
6 13 9 13 5 0 -3 17 3 38 14 61 31 91 35 99 14 7 -20 33 -50 33 -39 0 3 10 -3
22 -14 11 -11 25 -18 30 -15 4 3 8 1 8 -3 0 -11 55 -31 102 -39 65 -11 218
-11 218 0 0 6 5 4 10 -4 5 -8 10 -10 10 -3 0 6 8 10 18 9 24 -4 124 25 140 40
6 7 12 17 12 23 0 14 -81 81 -91 75 -5 -3 -9 2 -9 11 0 11 -5 15 -15 11 -8 -3
-21 2 -30 10 -8 9 -15 13 -15 10 0 -2 -15 0 -32 5 -43 13 -66 18 -113 23 -22
2 -49 7 -59 12 -15 6 -17 4 -11 -6 6 -10 4 -11 -6 -4 -8 4 -24 9 -37 10 -28 1
-42 14 -16 14 11 0 25 9 32 20 7 11 19 20 27 20 8 0 15 4 15 8 0 5 12 14 26
20 16 8 22 17 18 25 -4 6 -4 9 1 5 4 -4 20 1 35 12 40 28 45 28 95 -18 8 -7
15 -11 15 -8 0 3 15 -1 34 -9 18 -8 36 -11 40 -8 3 4 6 2 6 -3 0 -5 36 -9 80
-9 44 0 80 3 80 8 0 4 3 6 8 5 16 -4 92 14 92 22 0 5 11 7 25 5 14 -1 25 2 25
8 0 6 3 8 6 4 4 -3 13 1 21 9 8 8 19 12 24 9 5 -4 9 -1 9 4 0 6 6 11 14 11 8
0 16 7 20 15 3 8 1 15 -5 15 -6 0 -7 5 -4 10 3 6 -1 10 -9 10 -9 0 -16 3 -16
8 0 11 -58 34 -70 27 -5 -3 -10 -1 -10 5 0 6 -4 9 -9 5 -5 -3 -12 -1 -16 4 -3
6 -55 9 -128 6 -140 -4 -159 -6 -169 -20 -4 -5 -9 -7 -13 -4 -3 3 15 27 40 53
25 26 45 52 45 57 0 6 5 7 10 4 6 -3 10 -3 10 2 0 13 66 83 78 83 6 0 18 -7
26 -16 10 -10 16 -11 16 -3 0 8 3 9 13 0 16 -13 117 -20 117 -9 0 5 12 6 26 4
15 -3 37 2 52 12 14 9 26 15 27 13 0 -2 23 7 50 19 28 13 55 23 62 23 7 0 10
4 7 9 -3 4 3 11 13 15 23 9 71 53 58 53 -6 0 -3 5 5 10 13 8 11 11 -7 16 -13
4 -23 9 -23 13 0 6 -57 13 -125 14 -49 1 -118 -11 -154 -25 -14 -6 -30 -10
-35 -9 -4 1 -14 -4 -22 -10 -19 -16 -29 -5 -12 13 7 7 14 20 16 28 2 8 9 18
15 22 6 3 12 15 13 25 2 10 11 25 22 33 10 9 17 20 15 26 -6 19 25 37 54 30
35 -8 40 -9 83 -1 57 9 121 39 156 72 13 12 24 19 24 15 0 -4 4 -1 8 6 5 6 23
23 42 37 19 14 31 25 27 25 -4 0 2 10 13 22 20 22 24 57 6 50 -5 -2 -13 2 -17
10 -5 7 -9 8 -9 2 0 -6 -7 -11 -15 -11 -8 0 -15 4 -15 9 0 5 -4 6 -10 3 -5 -3
-22 -8 -37 -10 -39 -6 -54 -10 -87 -24 -16 -6 -31 -10 -33 -7 -3 2 -13 -4 -24
-15 -11 -11 -24 -17 -29 -14 -4 3 -10 0 -12 -7 -2 -6 -11 -12 -20 -14 -11 -1
-14 4 -11 17 3 10 9 16 14 13 5 -3 6 2 3 10 -4 10 -1 16 7 16 12 0 12 2 1 9
-11 7 -10 9 3 15 9 3 13 10 10 16 -3 5 -1 10 5 10 6 0 9 4 5 10 -3 5 0 18 6
28 10 16 18 18 41 12 18 -6 28 -5 28 2 0 5 7 8 15 5 8 -4 17 -2 20 4 4 5 10 7
15 4 5 -3 11 -1 15 5 4 6 11 8 16 5 5 -4 12 1 15 9 3 9 11 16 18 16 15 0 102
78 99 90 -2 5 6 12 17 15 11 4 18 11 15 16 -4 5 -2 9 2 9 8 0 47 58 48 70 0 3
4 10 8 17 12 18 -22 31 -59 23 -19 -4 -34 -6 -34 -3 0 3 -7 0 -15 -7 -8 -6
-19 -9 -25 -5 -5 3 -10 1 -10 -4 0 -6 -6 -11 -14 -11 -8 0 -22 -7 -30 -16 -9
-8 -16 -12 -16 -7 0 4 -7 -1 -15 -11 -8 -11 -15 -17 -15 -13 0 3 -15 -7 -32
-24 -31 -28 -55 -39 -44 -20 4 5 0 12 -6 14 -9 4 -8 6 2 6 9 1 16 12 17 29 5
78 18 107 50 110 16 1 30 7 31 12 2 6 8 8 13 5 4 -3 19 1 32 10 13 8 27 12 31
8 4 -5 6 -3 4 2 -1 6 13 26 33 45 40 39 84 100 73 100 -4 0 1 7 12 15 10 8 15
15 10 15 -4 0 -1 11 8 25 16 24 22 76 10 88 -3 3 -14 2 -23 -3 -9 -5 -37 -17
-63 -27 -25 -9 -44 -21 -42 -25 3 -5 0 -8 -6 -8 -6 0 -35 -25 -65 -56 -30 -31
-55 -52 -56 -47 0 4 -2 16 -4 26 -2 9 2 17 8 17 7 0 5 5 -3 10 -8 5 -10 10 -4
10 7 0 9 10 6 25 -3 19 1 27 19 34 13 5 27 7 32 4 4 -2 7 1 7 7 0 6 4 9 9 5 5
-3 33 18 61 47 73 76 87 92 73 84 -7 -4 -13 -2 -13 3 0 6 5 11 10 11 9 0 28
37 34 65 1 6 7 19 13 31 7 12 8 25 2 35 -5 7 -9 10 -9 4 0 -5 -4 -5 -8 2 -5 8
-20 5 -53 -11 -45 -23 -110 -76 -93 -76 5 0 -2 -7 -14 -16 -12 -8 -29 -28 -37
-45 -9 -16 -21 -29 -28 -29 -7 0 -8 3 -2 8 16 11 14 38 -4 49 -14 8 -17 7 -18
-8 -1 -11 2 -17 8 -14 5 4 9 2 9 -4 0 -5 -5 -13 -10 -16 -8 -5 -7 -12 2 -23
12 -14 10 -14 -9 -3 -13 6 -23 18 -23 26 0 8 -5 15 -11 15 -5 0 -7 5 -4 10 3
6 1 10 -6 10 -7 0 -10 3 -6 6 7 7 -3 21 -57 75 -21 22 -41 37 -43 35 -3 -2
-13 4 -24 15 -26 26 -57 25 -61 -3z"/>
<path d="M1555 2682 c-3 -8 0 -22 7 -30 7 -9 8 -13 2 -9 -13 8 -13 -80 0 -102
6 -10 5 -12 -2 -7 -8 4 -10 2 -6 -7 6 -17 40 -15 37 2 -2 6 3 11 10 11 9 0 9
3 -1 9 -16 10 26 24 70 24 15 0 26 2 25 6 0 3 4 15 10 26 13 25 9 53 -10 72
-20 21 -134 24 -142 5z m113 -40 c2 -30 -19 -49 -39 -36 -5 3 -9 0 -9 -7 0 -7
-6 -4 -14 7 -11 14 -11 21 -3 26 7 4 8 8 3 8 -5 0 -3 6 3 14 7 8 21 12 33 8
16 -4 19 -2 13 8 -5 8 -4 11 1 7 5 -3 11 -19 12 -35z"/>
<path d="M1819 2682 c-14 -20 -18 -139 -6 -159 4 -6 15 -9 25 -7 15 4 17 16
14 87 -4 89 -12 109 -33 79z"/>
<path d="M1950 2687 c0 -4 -5 -5 -11 -2 -6 4 -5 -2 3 -14 16 -26 24 -26 37 -3
7 11 10 13 11 3 0 -8 7 -11 20 -8 11 3 20 2 20 -2 0 -6 -35 -50 -81 -100 -14
-16 -18 -26 -11 -29 7 -2 10 -7 8 -11 -3 -4 6 -7 20 -7 13 0 24 4 24 9 0 6 5
6 13 0 15 -11 47 -11 66 1 9 6 12 5 8 -1 -3 -5 0 -10 8 -10 7 0 13 8 12 18 -1
10 -4 17 -7 17 -3 0 -22 0 -42 1 -32 1 -37 4 -35 21 2 11 7 23 12 27 4 5 5 2
0 -6 -5 -9 -4 -12 3 -7 7 4 12 11 12 16 0 5 11 21 24 35 47 51 41 60 -41 60
-40 0 -73 -3 -73 -8z"/>
<path d="M2180 2686 c-19 -19 -10 -24 35 -23 28 1 47 -3 50 -10 2 -7 -1 -12
-8 -10 -7 1 -11 -4 -9 -10 1 -7 -3 -13 -9 -13 -5 0 -7 -5 -3 -12 4 -7 3 -8 -5
-4 -6 4 -14 0 -18 -11 -4 -10 -15 -24 -25 -31 -27 -20 -19 -46 15 -47 15 -1
27 2 27 6 0 5 10 5 23 1 19 -7 40 -8 77 -3 5 0 7 8 3 17 -5 13 -7 13 -14 2 -7
-10 -9 -9 -9 5 0 10 -5 15 -10 12 -6 -4 -7 -12 -4 -18 5 -8 3 -8 -7 1 -7 6
-22 12 -32 12 -18 0 -18 1 2 33 11 17 26 31 32 29 6 -1 8 2 5 7 -4 5 1 14 10
19 9 5 15 12 15 15 -3 21 0 27 12 21 9 -5 9 -4 0 6 -15 16 -139 20 -153 6z"/>
<path d="M2415 2683 c-2 -7 0 -13 6 -13 6 0 7 -6 2 -12 -11 -18 -11 -79 0
-102 6 -13 6 -16 -2 -12 -12 8 -14 -4 -3 -19 8 -13 22 -13 41 -1 10 6 12 5 7
-2 -5 -9 0 -9 18 -2 14 5 26 6 26 1 0 -15 30 -8 47 12 18 19 17 19 -38 16 -53
-4 -55 -3 -57 22 -2 23 1 26 25 23 15 -1 31 3 35 9 6 9 8 9 8 -1 0 -7 4 -11
10 -7 5 3 6 13 3 21 -4 11 -15 14 -38 11 -26 -4 -34 -1 -38 13 -6 22 33 36 45
17 6 -9 8 -9 8 0 0 7 6 10 14 7 7 -3 15 3 18 13 4 16 -3 18 -63 18 -46 0 -70
-4 -74 -12z"/>
<path d="M2655 2690 c-2 -3 -2 -43 -1 -89 1 -72 4 -84 19 -87 9 -1 15 2 11 7
-3 5 0 9 6 9 6 0 10 8 8 17 -5 29 35 21 55 -11 15 -23 21 -26 28 -15 7 12 9
12 9 0 0 -12 3 -12 12 -3 9 9 8 15 -8 27 -10 8 -14 15 -9 15 6 0 3 5 -5 10
-13 8 -12 10 3 10 15 0 22 11 18 33 0 4 3 7 8 7 4 0 6 11 3 25 -2 14 -7 23
-10 21 -3 -3 -10 2 -17 11 -9 12 -29 17 -69 17 -32 1 -59 -1 -61 -4z m101 -35
c14 -12 12 -28 -5 -48 -10 -13 -17 -14 -37 -5 -14 7 -23 17 -20 24 2 6 -1 17
-7 24 -7 7 -7 10 -2 7 6 -3 17 -2 25 3 16 10 30 9 46 -5z"/>
<path d="M2906 2692 c-3 -5 -5 -27 -4 -51 0 -23 -2 -45 -6 -48 -3 -3 -1 -13 6
-20 8 -10 8 -17 1 -21 -6 -4 -8 -14 -4 -22 7 -18 31 -25 31 -9 0 5 6 7 13 3 9
-6 9 -4 -1 8 -10 13 -10 17 0 21 8 4 9 8 3 14 -15 12 -17 33 -2 33 9 0 8 3 -2
9 -9 6 -10 14 -4 27 6 11 7 28 4 39 -6 21 -26 31 -35 17z"/>
<path d="M3097 2685 c-9 -6 -14 -14 -11 -17 2 -3 -9 -32 -26 -64 -33 -65 -38
-91 -15 -91 9 0 14 6 11 13 -3 9 1 11 11 7 10 -4 14 -2 10 4 -4 6 1 17 10 24
12 10 14 10 9 2 -9 -16 -1 -16 25 -3 13 8 19 7 19 0 0 -6 4 -9 9 -6 9 6 26
-10 33 -29 4 -12 37 -14 44 -3 3 4 0 8 -5 8 -6 0 -11 9 -11 20 0 11 -4 20 -10
20 -5 0 -10 11 -10 24 0 13 -7 29 -15 36 -9 7 -13 15 -11 18 8 7 -22 46 -37
48 -7 1 -21 -4 -30 -11z m42 -65 c4 0 8 -7 8 -15 0 -8 -9 -15 -19 -15 -12 0
-16 -4 -12 -12 4 -7 3 -8 -5 -4 -11 7 -9 46 6 68 5 10 8 8 11 -4 2 -10 7 -18
11 -18z"/>
<path d="M1420 2358 c0 -5 -4 -7 -8 -4 -10 6 -43 -30 -35 -38 4 -3 2 -6 -4 -6
-9 0 -10 -13 -5 -73 1 -10 7 -15 12 -12 6 3 10 -1 10 -9 0 -9 3 -15 8 -14 4 0
15 -2 25 -7 10 -4 24 -2 34 6 10 8 14 9 10 2 -11 -17 10 -26 25 -10 7 8 22 12
33 9 18 -5 19 -4 5 13 -9 11 -10 16 -2 11 8 -5 12 1 12 21 0 23 -5 28 -27 30
-16 0 -21 -2 -13 -7 8 -5 9 -10 2 -14 -6 -4 -9 -12 -6 -19 3 -8 -8 -12 -35
-12 -22 0 -38 1 -36 4 3 2 -2 12 -9 22 -18 26 -9 80 12 72 10 -4 13 -2 8 5 -3
6 -2 13 4 17 5 3 10 1 10 -4 0 -6 5 -11 11 -11 5 0 7 6 3 13 -5 8 -2 8 9 -2 9
-7 17 -10 17 -5 0 5 4 3 9 -5 5 -8 16 -11 26 -8 9 4 13 11 10 17 -4 6 -11 8
-16 4 -5 -3 -8 0 -7 8 2 9 -11 13 -44 14 -27 1 -48 -3 -48 -8z"/>
<path d="M1634 2358 c-5 -7 -3 -8 6 -3 10 6 11 4 4 -6 -13 -21 -14 -140 0
-132 6 4 4 -1 -4 -11 -13 -16 -12 -18 10 -14 14 1 23 7 22 12 -2 5 2 13 10 17
10 7 10 9 -2 9 -12 0 -12 2 -2 9 15 9 63 -9 56 -21 -5 -8 15 -21 39 -25 22 -4
22 5 0 29 -15 17 -15 20 -3 28 8 6 11 10 5 10 -5 0 -2 5 8 11 9 5 17 17 17 25
0 10 -5 12 -12 8 -10 -6 -10 -5 -1 7 14 17 7 29 -24 47 -28 15 -119 16 -129 0z
m116 -48 c0 -15 -9 -31 -21 -38 -13 -9 -18 -9 -14 -2 4 7 0 10 -11 8 -13 -2
-19 3 -17 15 0 12 -4 16 -13 13 -11 -4 -11 -1 -3 12 7 11 23 17 45 17 30 0 34
-3 34 -25z"/>
<path d="M1884 2283 c0 -91 1 -93 24 -93 22 0 23 2 11 17 -8 9 -9 14 -3 10 7
-4 12 2 12 18 0 14 -5 22 -11 18 -6 -4 -7 -1 -1 8 14 23 15 49 1 49 -8 0 -7 4
3 10 13 9 13 11 0 20 -13 8 -13 10 0 10 11 0 11 3 2 12 -10 10 -15 10 -21 -1
-7 -11 -9 -11 -13 0 -3 8 -5 -28 -4 -78z"/>
<path d="M2026 2283 c0 -46 4 -86 7 -90 10 -10 120 -4 131 7 7 7 4 10 -8 10
-9 0 -15 4 -12 9 7 10 -13 9 -31 -2 -6 -4 -14 -3 -18 3 -4 6 -10 8 -15 5 -4
-2 -10 6 -12 20 -3 14 -1 25 5 25 7 0 7 4 0 11 -8 8 -8 20 -3 35 6 14 5 26 -1
29 -5 4 -7 11 -4 16 4 5 -4 8 -17 7 -23 -2 -24 -5 -22 -85z"/>
<path d="M2245 2353 c-10 -23 -11 -56 -2 -70 4 -6 3 -14 -3 -18 -6 -4 -7 -12
0 -24 6 -12 5 -22 -1 -28 -15 -15 -1 -21 51 -23 82 -3 89 -2 83 20 -4 16 -9
18 -24 9 -13 -7 -19 -6 -19 1 0 6 -4 9 -9 6 -13 -8 -42 4 -35 15 3 5 1 9 -5 9
-6 0 -6 11 -1 29 4 15 4 34 -1 42 -5 8 -3 16 4 21 9 6 9 8 -1 8 -7 0 -10 5 -7
10 3 6 0 10 -8 10 -8 0 -18 -8 -22 -17z"/>
<path d="M2513 2364 c-7 -3 -9 -12 -6 -20 3 -8 1 -14 -4 -14 -6 0 -16 -18 -23
-40 -7 -22 -17 -40 -22 -40 -4 0 -8 -8 -8 -18 0 -10 -6 -24 -12 -31 -10 -11
-10 -13 0 -7 7 4 12 2 12 -6 0 -7 10 -2 23 12 31 35 117 39 117 5 0 -8 9 -15
21 -15 11 0 17 5 14 10 -3 6 0 10 7 10 11 0 11 2 0 9 -7 4 -14 18 -15 29 -1
12 -7 22 -15 22 -7 0 -12 6 -11 13 1 6 -5 29 -15 50 -15 35 -32 43 -63 31z
m37 -73 c0 -9 5 -22 11 -28 9 -9 7 -12 -10 -10 -11 1 -21 5 -21 10 0 4 -4 5
-10 2 -5 -3 -10 1 -10 9 0 9 5 16 10 16 6 0 10 7 10 16 0 8 5 12 10 9 6 -3 10
-14 10 -24z"/>
<path d="M2716 2354 c-4 -10 -2 -13 7 -8 9 6 9 5 0 -7 -10 -12 -10 -18 -1 -27
9 -9 9 -12 -1 -12 -10 0 -11 -3 -2 -13 6 -8 8 -17 4 -21 -10 -10 -11 -66 -1
-60 4 3 8 -1 8 -8 0 -19 119 -11 127 8 3 8 9 12 14 9 11 -8 37 46 33 70 -9 58
-50 85 -130 85 -38 0 -53 -4 -58 -16z m58 -16 c-8 -13 10 -10 25 5 11 10 12 9
6 -2 -6 -11 -4 -13 8 -8 10 4 17 2 17 -4 0 -6 7 -9 14 -6 11 4 13 1 9 -10 -4
-10 -2 -14 4 -10 16 10 2 -45 -16 -64 -22 -22 -83 -20 -87 4 -1 9 3 17 9 17 8
0 7 3 -1 9 -8 4 -14 12 -14 16 0 4 6 12 14 16 7 5 8 9 3 9 -6 0 -11 8 -11 18
0 10 6 19 13 19 7 0 10 -4 7 -9z"/>
<path d="M2991 2280 l-2 -88 31 -4 c16 -3 30 -1 30 3 0 5 10 5 23 0 12 -5 32
-5 46 0 33 13 11 36 -32 33 -40 -3 -60 7 -52 28 4 10 19 16 41 16 37 0 58 11
36 19 -6 3 -10 9 -6 14 7 11 1 11 -31 -1 -17 -7 -24 -7 -20 0 3 6 -1 10 -10
10 -9 0 -15 5 -13 11 2 6 8 11 13 11 6 0 16 5 24 11 12 9 13 9 7 0 -4 -8 -2
-13 8 -13 8 0 17 6 19 13 4 10 6 10 6 0 1 -20 17 -15 18 6 1 17 -5 19 -66 19
l-69 0 -1 -88z"/>
<path d="M3230 2349 c-14 -11 -18 -17 -10 -13 13 7 13 6 1 -10 -12 -14 -12
-19 -2 -25 7 -5 11 -12 9 -17 -1 -5 12 -10 30 -12 17 -2 32 -8 32 -13 0 -6 4
-8 9 -5 5 3 11 -1 15 -9 3 -9 0 -15 -10 -15 -8 0 -12 -5 -8 -11 5 -8 1 -8 -13
0 -11 6 -23 7 -27 4 -3 -3 -6 -2 -6 4 0 6 -9 9 -20 6 -24 -6 -25 -10 -6 -29
22 -22 144 -15 130 7 -3 5 -1 9 3 9 5 0 9 9 9 20 0 11 -4 20 -9 20 -5 0 -7 6
-4 13 4 12 -12 17 -65 20 -19 1 -32 23 -19 31 18 12 61 14 61 3 0 -8 3 -8 11
0 39 39 -66 59 -111 22z"/>
<path d="M2405 2051 c-2 -1 -23 -4 -47 -6 -24 -1 -51 -5 -60 -9 -9 -4 -22 -8
-30 -10 -33 -5 -108 -42 -108 -54 0 -7 -4 -11 -9 -7 -5 3 -11 -3 -13 -12 -4
-19 29 -56 42 -48 4 3 10 -5 13 -16 4 -15 11 -20 21 -16 9 4 16 2 16 -3 0 -6
8 -10 18 -10 37 0 64 -99 35 -128 -17 -18 -17 -57 1 -71 11 -10 16 -9 23 4 10
18 93 30 93 13 0 -5 4 -7 8 -4 5 3 16 -4 25 -15 20 -22 30 -99 14 -99 -6 0 -7
-3 -4 -6 13 -13 -47 -50 -87 -53 -4 -1 -5 -9 -1 -18 4 -10 8 -25 9 -33 2 -9
14 -15 31 -15 29 -1 90 -49 81 -64 -3 -4 -1 -13 4 -21 8 -13 -7 -60 -20 -60
-4 0 -10 -8 -12 -18 -6 -21 16 -45 38 -40 17 3 62 76 67 106 1 9 6 23 11 30 5
9 -2 24 -23 44 -29 28 -33 36 -34 71 -1 23 15 67 23 62 4 -3 10 2 14 10 4 10
20 15 49 15 47 0 67 14 70 49 1 12 5 21 10 21 5 0 7 6 5 13 -3 6 -13 12 -24
12 -23 0 -86 26 -80 33 3 2 -1 11 -9 19 -8 8 -15 27 -15 42 0 30 36 85 50 76
5 -3 11 -1 15 5 10 16 47 12 78 -8 15 -10 25 -21 22 -24 -3 -2 2 -5 10 -5 12
0 27 23 30 47 0 3 4 11 8 18 5 6 5 12 2 12 -9 0 16 22 40 36 11 7 19 20 17 30
-4 18 -51 61 -64 57 -5 -2 -8 1 -8 7 0 5 -6 7 -14 4 -8 -3 -17 0 -21 5 -3 6
-11 9 -16 6 -5 -4 -9 -2 -9 2 0 10 -11 12 -87 15 -28 2 -49 6 -47 9 3 6 -145
7 -151 0z m78 -105 c21 -10 35 -21 33 -24 -3 -2 -1 -13 4 -22 17 -31 1 -74
-36 -99 -31 -22 -39 -23 -73 -13 -35 11 -50 28 -65 74 -6 21 12 78 26 78 5 0
16 6 23 14 18 17 41 15 88 -8z"/>
<path d="M2450 1150 c0 -3 -14 -5 -31 -4 -18 1 -32 -3 -36 -12 -3 -8 -9 -12
-13 -9 -12 8 -41 -6 -34 -16 5 -8 -3 -11 -22 -8 -4 0 -19 -18 -34 -40 -14 -23
-30 -38 -35 -34 -4 5 -5 2 -1 -4 4 -7 3 -21 -3 -31 -14 -26 -20 -102 -8 -109
5 -3 5 -8 -2 -12 -7 -5 -6 -16 4 -35 8 -16 15 -35 15 -42 0 -8 5 -14 10 -14 6
0 10 -6 10 -14 0 -8 13 -24 29 -37 16 -13 27 -28 24 -33 -3 -5 -1 -6 6 -2 6 4
19 2 27 -5 28 -23 130 -33 153 -15 11 8 13 8 7 -1 -8 -14 6 -18 18 -6 3 4 16
8 27 10 11 2 27 10 35 18 8 8 23 20 32 27 34 26 67 84 79 138 22 95 -33 212
-125 263 -18 10 -32 15 -32 11 0 -3 -6 -1 -14 5 -8 6 -18 11 -22 10 -5 -1 -11
0 -14 1 -14 5 -50 6 -50 0z"/>
</g>
</svg>
